<svg width="47" height="52" viewBox="0 0 47 52" fill="none" xmlns="http://www.w3.org/2000/svg">
<path d="M14.3766 35.4084L14.1477 35.2656C13.7317 35.0047 13.3009 34.7364 12.9563 34.3573C12.93 34.3271 12.8974 34.3029 12.8609 34.2864C12.8244 34.2698 12.7847 34.2613 12.7446 34.2613C12.6917 34.2625 12.6392 34.2724 12.5896 34.2909C12.4689 34.3352 12.3459 34.3869 12.2277 34.4361C11.9225 34.5641 11.6074 34.697 11.2579 34.7241C11.2259 34.7266 11.1889 34.7536 11.1496 34.7807C11.1253 34.7981 11.0998 34.8137 11.0733 34.8275C11.04 34.8446 11.0113 34.8694 10.9894 34.8997C10.9676 34.9301 10.9533 34.9653 10.9477 35.0022C10.9438 35.0229 10.9454 35.0442 10.9523 35.0641C10.9593 35.084 10.9712 35.1017 10.9871 35.1155C11.1766 35.2853 11.3883 35.4232 11.6419 35.5807C12.2646 35.9598 12.944 36.2429 13.6013 36.5186C14.1034 36.7253 14.6203 36.9419 15.1126 37.1979C15.1225 37.1979 15.1693 37.1733 15.1988 37.1561L15.2283 37.1413C15.1291 36.9847 15.0778 36.8024 15.0806 36.617C15.0813 36.3712 15.0164 36.1296 14.8926 35.9172C14.7689 35.7047 14.5908 35.5291 14.3766 35.4084Z" fill="#CE8647"/>
<path d="M35.0585 34.729C34.672 34.7167 34.32 34.5789 33.9779 34.4484C33.8548 34.3992 33.7268 34.3499 33.6013 34.3081C33.5368 34.2831 33.4686 34.269 33.3994 34.2662C33.3344 34.2657 33.2718 34.2904 33.2247 34.3352C33.1314 34.4207 33.0411 34.5093 32.9539 34.601C32.7749 34.8071 32.5627 34.9818 32.3262 35.1179C32.0776 35.241 31.8954 35.4158 31.701 35.5979C31.6137 35.684 31.5233 35.7669 31.4302 35.8466C31.1397 36.0853 31.0191 36.3782 31.0733 36.7179V36.8066L31.0757 36.9764C31.0782 37.0946 31.0954 37.129 31.1127 37.1413C31.1274 37.1512 31.1693 37.1512 31.2702 37.1044L31.509 36.9838C31.6714 36.9001 31.8363 36.8139 32.0136 36.7573C32.7003 36.5358 33.3477 36.1936 33.973 35.8613C34.357 35.657 34.7533 35.4478 35.157 35.2656C35.2948 35.2041 35.2727 35.0121 35.248 34.9038C35.2283 34.8275 35.1816 34.7339 35.0585 34.729Z" fill="#CE8647"/>
<path d="M11.8092 31.9745C11.8464 31.9957 11.8884 32.0068 11.9311 32.0068C11.9738 32.0068 12.0158 31.9957 12.0529 31.9745C12.1366 31.9253 12.1859 31.817 12.1883 31.6865V30.4508C12.1883 30.3696 12.1883 30.2908 12.1834 30.2096C12.176 29.9905 12.1686 29.7665 12.2006 29.5474C12.2425 29.2471 12.1612 28.9788 12.0775 28.6933C12.0406 28.5677 12.0012 28.4397 11.9742 28.3093C11.9495 28.1911 11.8757 28.1443 11.7846 28.0853L11.696 28.0262C11.2431 27.6865 10.7212 27.7677 10.2708 27.8933C9.92863 27.9842 9.57618 28.0305 9.22216 28.0311C8.52309 28.041 7.82401 28.0459 7.12493 28.0508L6.02216 28.0607H5.90155C5.78832 28.0607 5.6677 28.0607 5.55693 28.0803C5.51262 28.0853 5.44862 28.1419 5.42647 28.1911C5.31816 28.452 5.43139 28.7991 5.66278 28.9074C5.85232 28.9936 6.03939 29.0847 6.22401 29.1733C6.55632 29.3333 6.89601 29.4982 7.24309 29.6459C8.21295 30.0521 9.1531 30.5259 10.0566 31.0637C10.5465 31.3542 11.0683 31.6102 11.5729 31.8588L11.8092 31.9745Z" fill="#374E58"/>
<path d="M2.94773 11.593C2.9945 11.726 3.07327 11.8564 3.14712 11.982L3.21604 12.1001C3.27512 12.201 3.33912 12.2995 3.40065 12.4004C3.52619 12.5949 3.65419 12.7992 3.74281 13.0158C4.01604 13.7026 4.55019 14.1924 5.06219 14.665L5.21481 14.8029C5.24927 14.8349 5.2665 14.83 5.27635 14.83C5.32065 14.8275 5.36989 14.761 5.39942 14.7167L5.40927 14.702C5.45332 14.6367 5.49122 14.5675 5.5225 14.4952C5.55155 14.4261 5.58612 14.3594 5.62589 14.2958C5.86219 13.9364 5.85235 13.6017 5.59635 13.1389C5.20799 12.4191 4.87632 11.6702 4.60435 10.8989C4.48373 10.5764 4.35081 10.2515 4.22527 9.93889C4.02731 9.47175 3.84749 8.99714 3.68619 8.51612C3.61579 8.26101 3.48683 8.02586 3.30958 7.82935C3.19823 7.71183 3.08498 7.59612 2.96989 7.48227C2.80659 7.31728 2.64575 7.14988 2.48742 6.98012C2.43081 6.91612 2.48496 6.75858 2.53419 6.6995C2.58835 6.63796 2.72865 6.57642 2.79758 6.61335C3.40558 6.92842 3.83142 7.47489 4.17358 7.9155C4.2105 7.95981 4.21542 8.01642 4.22035 8.07058C4.2215 8.09964 4.22562 8.12851 4.23265 8.15673C4.72989 9.6115 5.35265 11.118 6.14035 12.7647C6.30035 13.0995 6.38158 13.4269 6.39881 13.7937C6.41604 14.2343 6.21912 14.5838 6.02958 14.9235L5.97542 15.022C5.89173 15.1697 5.89912 15.273 5.99512 15.3838C6.04422 15.4435 6.09859 15.4987 6.15758 15.5487C6.91819 16.2257 7.45235 16.9346 7.78712 17.7124C7.84441 17.8508 7.92519 17.9782 8.02589 18.089C8.50767 18.6122 8.90168 19.2099 9.19265 19.8589C9.26581 20.0113 9.37062 20.1463 9.50008 20.2549C9.62954 20.3636 9.78068 20.4434 9.94342 20.489C10.453 20.6737 10.8887 20.7697 11.2776 20.7869C11.9865 20.8164 12.7102 20.8115 13.4093 20.8041C13.7268 20.7992 14.0468 20.7943 14.3619 20.7992C14.5096 20.7992 14.5736 20.7278 14.5933 20.5457L14.5957 20.4915L14.6007 20.425C14.6917 19.7678 15.024 19.4503 15.6173 19.406L15.6123 19.3838C15.5803 19.0613 15.5139 18.7413 15.4154 18.4312C15.3908 18.3549 15.3637 18.2737 15.344 18.1949L15.2825 18.1284C15.2013 18.0398 15.1151 17.9512 15.0733 17.838C15.0282 17.7172 14.9806 17.5973 14.9305 17.4786C14.7803 17.1044 14.6228 16.718 14.5637 16.3044C14.4111 16.1666 14.3767 15.9844 14.3422 15.8097C14.3275 15.682 14.2865 15.5587 14.2216 15.4478C14.1083 15.2804 13.936 15.246 13.7514 15.2115C13.589 15.182 13.4216 15.15 13.2887 15.0244C13.2665 15.0023 13.2173 14.985 13.1656 14.9973C13.1438 14.9998 13.123 15.0079 13.1053 15.0208C13.0876 15.0338 13.0736 15.0511 13.0647 15.0712C13.0195 15.1692 12.9719 15.2661 12.9219 15.3617C12.7816 15.6423 12.6363 15.9327 12.56 16.233C12.5133 16.4127 12.4197 16.5752 12.3287 16.7352C12.1785 16.9887 12.0407 17.23 12.112 17.5106C12.1883 17.8109 12.3434 18.0989 12.4936 18.3795C12.56 18.5075 12.6314 18.638 12.693 18.7709C12.706 18.7948 12.7126 18.8216 12.7121 18.8487C12.7117 18.8759 12.7043 18.9025 12.6905 18.926C12.6536 18.9924 12.5699 19.0343 12.464 19.0417C12.3262 19.0515 12.1194 19.0441 12.0037 18.857C11.946 18.756 11.8927 18.6525 11.8437 18.5469C11.8096 18.4745 11.7735 18.4031 11.7354 18.3327C11.4154 17.737 11.4105 17.1733 11.7207 16.6097C11.8413 16.3906 11.9225 16.1444 12.0013 15.9081C12.1047 15.6004 12.2105 15.2804 12.405 14.9998C12.464 14.9137 12.4665 14.7167 12.4148 14.6084C12.3661 14.5093 12.2923 14.4247 12.2008 14.3629C12.1092 14.3012 12.0031 14.2644 11.893 14.2564C11.7059 14.2367 11.568 14.3204 11.4622 14.5026C11.3563 14.6921 11.2702 14.9013 11.1865 15.1007L11.1274 15.241C11.0879 15.3369 11.051 15.4337 11.0167 15.5315C10.9576 15.7322 10.8724 15.9242 10.7631 16.1026C10.6671 16.2404 10.6622 16.393 10.6597 16.553C10.6548 16.7032 10.6523 16.8583 10.5637 17.001C10.5194 17.0749 10.3865 17.0995 10.3151 17.097C10.2462 17.0872 10.1059 17.0281 10.0911 16.942L10.0763 16.8583C10.0148 16.4767 9.94342 16.0435 10.165 15.7481C10.3545 15.4946 10.4628 15.1992 10.5687 14.9137C10.677 14.6281 10.7877 14.3303 10.9797 14.0718C11.0117 14.0275 11.024 13.9733 11.0117 13.9217C11.0019 13.8843 10.984 13.8495 10.9594 13.8197C10.9347 13.79 10.9039 13.766 10.869 13.7493C10.563 13.5832 10.2633 13.4059 9.9705 13.2177C9.58158 12.9715 9.17789 12.7204 8.74958 12.526C8.19911 12.2831 7.73978 11.8721 7.43758 11.3518C7.24095 11.0322 7.02986 10.7217 6.80496 10.4213C6.5465 10.0669 6.27819 9.70012 6.06404 9.30873C5.80558 8.83858 5.46589 8.42012 5.1385 8.01396C4.93056 7.76306 4.73106 7.50527 4.54035 7.24104C4.28681 6.88165 3.89296 6.36719 3.40065 6.07673C3.01912 5.85273 2.61789 5.64104 2.22896 5.43427C1.73665 5.17335 1.22712 4.90504 0.744655 4.60227C0.552655 4.48166 0.333578 4.50873 0.0898853 4.55304C0.0505007 4.56042 0.028347 4.57765 0.0234239 4.59242C0.0209624 4.59981 0.0258854 4.60966 0.0357316 4.6195C0.402501 4.96412 0.562501 5.4195 0.715116 5.85765C0.766808 6.00535 0.818501 6.1555 0.877578 6.29581C1.14342 6.94073 1.4265 7.63981 1.67019 8.35612C1.72435 8.51612 1.77358 8.68104 1.82281 8.84104C1.9385 9.22504 2.05912 9.62381 2.25604 9.98319C2.55881 10.542 2.78527 11.1377 2.94773 11.593Z" fill="#CE8647"/>
<path d="M14.5022 23.4477H15.4056C15.7797 23.4403 15.7945 23.4255 15.7871 22.9948L15.7822 22.8323C15.7797 22.7289 15.7748 22.6206 15.7797 22.5148C15.7945 22.2908 15.7133 22.1062 15.5213 21.9338L15.3564 21.7812C15.2702 21.6975 15.1816 21.6114 15.0856 21.5375C14.9797 21.4538 14.8813 21.4071 14.8074 21.4071C14.0887 21.4022 13.3133 21.4071 12.4345 21.4218C12.4074 21.4218 12.3311 21.4908 12.3287 21.5203C12.3237 22.0446 12.3213 22.6674 12.3484 23.2951C12.3557 23.3295 12.4862 23.4255 12.5601 23.428C12.9416 23.4403 13.333 23.4378 13.7071 23.4354H14.1502V23.4477H14.5022ZM13.557 22.5418C13.4733 22.5271 13.429 22.3671 13.4339 22.3006C13.4388 22.2268 13.493 22.0815 13.5767 22.0692C14.1527 21.9658 14.7287 22.0028 15.2111 22.052C15.2825 22.0594 15.3268 22.1455 15.3761 22.2465C15.413 22.3326 15.381 22.4311 15.3441 22.4902C15.2997 22.5566 15.2456 22.596 15.189 22.596L14.5957 22.5985H14.4185L14.4161 22.6452L14.3619 22.6378L14.1601 22.6157C13.9583 22.5971 13.7572 22.5725 13.557 22.5418Z" fill="#374E58"/>
<path d="M13.5028 11.5018C13.5028 11.5511 13.5028 11.5954 13.5175 11.6323C13.6185 11.9252 13.7145 12.2181 13.8105 12.5111C14.0492 13.2323 14.2954 13.9806 14.5957 14.6895C14.7877 15.1424 14.9477 15.6175 15.1003 16.0754C15.248 16.5184 15.4006 16.9787 15.5852 17.4169C15.6382 17.5795 15.6542 17.7519 15.632 17.9215C15.7034 18.0471 15.6911 18.1751 15.7329 18.3104C15.7805 18.4341 15.8496 18.5483 15.9372 18.6477L16.0874 18.8446C16.1514 18.9307 16.2179 19.0169 16.2548 19.1178C16.2864 19.2052 16.2872 19.3007 16.2572 19.3886C16.4689 19.3886 16.6806 19.3837 16.8849 19.3861H17.6308C17.7465 19.3886 17.8597 19.3911 17.9655 19.3714C18.1723 19.3344 18.2954 19.1646 18.3619 19.0292C18.4357 18.8815 18.3003 18.756 18.2142 18.6969C17.5397 18.2341 17.1852 17.5424 16.8431 16.8704C16.6757 16.548 16.5034 16.2107 16.2991 15.908C16.2523 15.8391 16.3385 15.6864 16.3975 15.6446C16.4615 15.5978 16.6019 15.5658 16.6757 15.6126C17.136 15.8957 17.3649 16.3757 17.5126 16.7646C17.7465 17.3726 18.1477 17.8723 18.8123 18.3769L18.8837 18.3227C18.9265 18.2962 18.9647 18.263 18.9969 18.2243C19.2529 17.8747 19.5902 17.7147 20.08 17.7147H20.176C20.6929 17.7369 21.2222 17.7295 21.7317 17.7246C21.9656 17.7197 22.1969 17.7172 22.4308 17.7172C22.5908 17.7172 22.6696 17.6409 22.6696 17.4858C22.6794 16.5751 22.6819 15.6643 22.6843 14.7535L22.6892 13.8649C22.6942 13.0674 22.6991 12.2403 22.6794 11.4304C22.6696 11.1178 22.7483 10.8298 22.8246 10.5517C22.8665 10.3892 22.9132 10.2218 22.9379 10.0544C22.9502 9.97567 23.1052 9.93136 23.1766 9.93136H23.184C23.2529 9.93628 23.3957 9.98798 23.4179 10.0717C23.4516 10.2286 23.4681 10.3887 23.4671 10.5492L23.472 14.0815L23.4745 16.6046C23.4769 16.9098 23.4769 17.2347 23.4942 17.5523C23.4991 17.6483 23.568 17.7098 23.6763 17.7123C23.8363 17.7197 23.9939 17.7221 24.1489 17.7221L24.6856 17.7246C25.2099 17.7295 25.7539 17.732 26.288 17.7271H26.3003C26.4233 17.7241 26.5455 17.7481 26.6581 17.7975C26.7708 17.8468 26.8714 17.9202 26.9526 18.0126C27.0437 18.1111 27.1422 18.2021 27.2456 18.3006C27.284 18.3343 27.3217 18.3688 27.3588 18.404L27.5951 18.1898C27.8068 18.0003 28.0086 17.8231 28.1711 17.6114C28.2745 17.4834 28.3434 17.3234 28.4123 17.1707C28.4886 17.0083 28.5649 16.8384 28.6782 16.6981C28.7791 16.5726 28.8579 16.4274 28.9342 16.2871C29.0646 16.0507 29.1951 15.8071 29.4363 15.6421C29.5077 15.5954 29.6086 15.6027 29.6899 15.6101C29.744 15.6126 29.7908 15.652 29.8302 15.7135C29.872 15.7849 29.9016 15.8957 29.8696 15.9695L29.84 16.0286L29.8179 16.0754C29.7282 16.2529 29.6262 16.424 29.5126 16.5874C29.3182 16.8803 29.136 17.156 29.0819 17.5031L29.0794 17.5178L29.0696 17.5301C28.9772 17.6335 28.894 17.7447 28.8209 17.8624C28.6609 18.0987 28.496 18.3424 28.1957 18.4704C28.1169 18.5049 28.0529 18.5763 27.984 18.6526C27.9422 18.6944 27.9028 18.7387 27.8585 18.7781C27.8117 18.8175 27.8019 18.8421 27.8019 18.8544C27.8019 18.8594 27.7994 18.8741 27.8216 18.8963L27.9126 19.0046C28.08 19.2015 28.2351 19.3886 28.5231 19.3886H28.5305C29.0129 19.3837 29.5028 19.3861 29.9926 19.3911C29.9615 19.3025 29.9623 19.2058 29.9951 19.1178C30.0365 19.0187 30.093 18.9265 30.1625 18.8446L30.3126 18.6477C30.4002 18.5483 30.4694 18.4341 30.5169 18.3104C30.5317 18.2538 30.5366 18.1997 30.544 18.1455C30.5391 18.1332 30.5194 18.1234 30.5194 18.1111L30.5219 18.02C30.5219 17.8132 30.5243 17.5991 30.5834 17.4021C30.6892 17.0526 30.8246 16.7104 30.9576 16.3781L31.0289 16.1984C31.1003 16.0212 31.1791 15.844 31.2579 15.6717C31.4154 15.3221 31.5779 14.9603 31.664 14.5886C31.824 13.9117 32.0185 13.3357 32.2622 12.8212C32.4074 12.516 32.4862 12.1837 32.56 11.8637C32.624 11.5929 32.6905 11.3123 32.7963 11.0489C32.8062 11.0218 32.7496 10.9086 32.6659 10.8298C32.5059 10.6723 32.3877 10.6747 32.2302 10.8323C31.4917 11.5724 30.7565 12.3158 30.0246 13.0624C29.6529 13.4292 29.2689 13.8083 29.0056 14.2735C28.9717 14.329 28.9283 14.3782 28.8775 14.4187L28.8357 14.4581L28.752 14.5344C28.7225 14.5615 28.6905 14.5886 28.6609 14.6206C28.6128 14.6702 28.5501 14.7032 28.4819 14.7147C28.4137 14.7262 28.3436 14.7156 28.2819 14.6846C28.2518 14.6718 28.2248 14.6529 28.2023 14.6292C28.1799 14.6055 28.1626 14.5774 28.1514 14.5467C28.1392 14.5074 28.1349 14.4661 28.1387 14.4252C28.1425 14.3842 28.1543 14.3444 28.1736 14.308C28.3926 13.8747 28.6511 13.5301 28.9637 13.2643C29.0842 13.1741 29.183 13.0581 29.2528 12.9248C29.3227 12.7915 29.3618 12.6442 29.3674 12.4938C29.3748 12.3707 29.4216 12.2501 29.4732 12.1221C29.5153 12.0267 29.549 11.9279 29.5742 11.8267C29.6185 11.6151 29.6554 11.4009 29.6948 11.1892C29.7514 10.8741 29.8105 10.5467 29.8868 10.2292C29.9631 9.90674 30.0492 9.58182 30.1329 9.26428C30.2757 8.73751 30.4209 8.19351 30.5194 7.64705L30.5292 7.6249C30.6991 7.38367 30.7139 7.10798 30.7336 6.81998C30.7344 6.59692 30.7726 6.37558 30.8468 6.16521C31.0166 5.75167 30.9994 5.31597 30.9822 4.89505L30.9748 4.67351C30.9743 4.6582 30.9708 4.64314 30.9645 4.62919C30.9581 4.61525 30.9491 4.6027 30.9379 4.59228C30.894 4.55482 30.838 4.53468 30.7803 4.53567H30.7729L30.7459 4.53813C30.5612 4.54059 30.4283 4.54551 30.3496 4.74982C30.2539 4.98414 30.1446 5.21264 30.0222 5.43413L29.8868 5.69751L29.5077 6.46059C29.0322 7.47464 28.4979 8.46011 27.9077 9.41198L27.8437 9.51044C27.6472 9.79917 27.4665 10.0983 27.3022 10.4064C27.1217 10.7448 26.9796 11.1023 26.8788 11.4723C26.8394 11.6274 26.7483 11.7652 26.6622 11.8957C26.5194 12.1123 26.3865 12.3166 26.4726 12.5874C26.5432 12.8469 26.5682 13.1168 26.5465 13.3849C26.544 13.5104 26.5391 13.6434 26.5489 13.7714L26.5514 13.8206C26.5612 13.8969 26.5711 13.9806 26.5268 14.0397C26.3569 14.2686 26.3569 14.5246 26.3569 14.7978C26.3545 14.9554 26.3545 15.1203 26.3175 15.2778C26.303 15.3251 26.2737 15.3666 26.2339 15.396L26.2142 15.4083L26.1723 15.4034C26.1009 15.3837 26.0099 15.364 25.9631 15.3C25.7071 14.948 25.6702 14.5172 25.8597 14.0249C25.968 13.7394 26.0591 13.4144 25.9139 13.1634C25.7859 12.9443 25.7834 12.7154 25.7785 12.4914C25.7736 12.2821 25.7711 12.0827 25.6677 11.9055C25.5028 11.6224 25.5077 11.3221 25.5151 11.0317C25.52 10.8938 25.5225 10.7486 25.5052 10.6107C25.4999 10.5435 25.5007 10.476 25.5077 10.4089C25.5175 10.3104 25.5249 10.2194 25.488 10.1627C25.2985 9.85751 25.2862 9.5129 25.2739 9.18305C25.2591 8.84336 25.2492 8.52336 25.0622 8.24028L25.0499 8.22305L25.0523 8.2009C25.0991 7.92521 25.0203 7.66921 24.9366 7.39844C24.8573 7.17941 24.8124 6.94938 24.8037 6.71659C24.7948 6.49525 24.7507 6.27673 24.6732 6.06921C24.592 5.80582 24.5059 5.53259 24.5477 5.23967C24.3877 5.00828 24.3729 4.74244 24.3606 4.48644C24.3483 4.27228 24.3385 4.0729 24.2449 3.90059C24.1489 3.72336 24.1366 3.5412 24.1194 3.36644C24.1209 3.19936 24.0811 3.0345 24.0037 2.88644C23.856 2.65013 23.856 2.40151 23.856 2.16028C23.856 2.04951 23.856 1.93628 23.8412 1.82551C23.8142 1.62613 23.4203 0.44459 23.3169 0.333821C23.2628 0.277205 23.1323 0.247667 23.0437 0.259975C22.9428 0.269821 22.8123 0.338744 22.8025 0.370744C22.748 0.665932 22.6631 0.954662 22.5489 1.23228C22.4012 1.63598 22.2486 2.05197 22.2831 2.49997C22.2942 2.70425 22.2545 2.90809 22.1674 3.09321C22.096 3.26305 22.064 3.44521 22.0296 3.63721C22.0005 3.87005 21.9349 4.09685 21.8351 4.30921C21.8555 4.57352 21.8142 4.83896 21.7145 5.08459C21.6434 5.27331 21.6011 5.47162 21.5889 5.6729C21.5865 5.93874 21.5126 6.19228 21.4412 6.43844C21.3502 6.75844 21.2616 7.06367 21.3182 7.39105L21.3206 7.41567L21.3059 7.4329C21.136 7.64213 21.1237 7.88582 21.1139 8.14182C21.1089 8.2329 21.104 8.33136 21.0917 8.4249C21.0626 8.62076 21.0256 8.81538 20.9809 9.00828C20.9373 9.19217 20.9011 9.37776 20.8726 9.56459L20.8431 9.8009C20.8111 10.0618 20.7791 10.3326 20.6831 10.6058C20.6216 10.7707 20.6314 10.9627 20.6412 11.1671C20.6511 11.3738 20.6634 11.588 20.592 11.7751C20.3557 12.4003 20.3705 13.0477 20.3828 13.6754C20.3902 13.9313 20.3902 14.1874 20.3828 14.4434C20.3779 14.5541 20.3803 14.6698 20.3803 14.7781C20.3828 14.8643 20.3828 14.9505 20.3803 15.0366V15.0637C20.3803 15.14 20.3803 15.2261 20.3385 15.2926C20.2991 15.3541 20.2228 15.3886 20.1539 15.4157L20.1317 15.4255C20.1054 15.4386 20.0765 15.4456 20.0471 15.446C20.0177 15.4464 19.9886 15.4403 19.9619 15.428C19.9385 15.4161 19.9178 15.3995 19.9013 15.3791C19.8848 15.3588 19.8727 15.3351 19.8659 15.3098C19.8287 15.1943 19.808 15.0742 19.8043 14.9529C19.7945 14.4507 19.7945 13.956 19.7945 13.4071C19.7945 13.0969 19.7945 12.7744 19.8043 12.4569C19.8117 12.2649 19.6985 12.1394 19.5803 12.004C19.4917 11.9055 19.4006 11.8046 19.3588 11.6717C19.3465 11.6298 19.344 11.588 19.3416 11.5461C19.3436 11.511 19.3386 11.4759 19.3268 11.4427C19.2505 11.2803 19.1791 11.1129 19.1102 10.9504C18.9379 10.5492 18.7606 10.1307 18.512 9.77628C18.2708 9.42921 18.0763 9.05259 17.8868 8.68828C17.776 8.47413 17.6628 8.25259 17.5397 8.03844L17.4659 7.9129C17.1434 7.35659 16.8111 6.78305 16.5182 6.19967L16.4862 6.14059C16.3754 5.92151 16.2597 5.69505 16.2203 5.42182C16.1681 5.2123 16.0725 5.01608 15.9397 4.84582C15.9132 4.80442 15.8861 4.7634 15.8585 4.72274C15.8068 4.63659 15.6886 4.57751 15.6025 4.53813C15.5546 4.51653 15.5022 4.50703 15.4499 4.51047C15.3975 4.5139 15.3468 4.53016 15.3022 4.55782C15.2616 4.58158 15.2275 4.61483 15.2026 4.6547C15.1777 4.69457 15.1629 4.73988 15.1594 4.78674C15.1446 5.11413 15.2086 5.43905 15.2726 5.75413C15.3071 5.92397 15.344 6.09874 15.3637 6.27351C15.3982 6.53936 15.4671 6.80521 15.5335 7.06121C15.6099 7.35413 15.6886 7.6569 15.7157 7.96705C15.8412 8.11967 15.8462 8.30921 15.8511 8.47413C15.856 8.6169 15.8585 8.75228 15.9323 8.85321C16.0406 9.02191 16.0962 9.21896 16.0923 9.41936C16.0905 9.57461 16.1277 9.72782 16.2006 9.8649C16.3237 10.0544 16.3311 10.2563 16.3385 10.4507C16.3387 10.5667 16.3519 10.6823 16.3779 10.7954C16.4492 11.0415 16.4935 11.2926 16.5354 11.5363C16.5649 11.7037 16.5945 11.8809 16.6339 12.0507L16.6683 12.1984C16.7594 12.6243 16.8554 13.0649 17.264 13.348C17.4905 13.5055 17.6677 13.7295 17.84 13.9461L17.9237 14.0471C17.9828 14.1209 17.9951 14.2218 18.0074 14.3227C18.0093 14.3492 18.0126 14.3754 18.0172 14.4015C18.0256 14.4411 18.0239 14.4821 18.0123 14.5208C18.0007 14.5595 17.9795 14.5946 17.9508 14.6231C17.9271 14.6452 17.8981 14.6607 17.8665 14.668C17.835 14.6754 17.8021 14.6743 17.7711 14.6649C17.488 14.5935 17.3354 14.3892 17.1902 14.1898C17.1311 14.1111 17.0695 14.0274 17.0006 13.956C16.0308 12.9492 15.0683 11.9769 14.1723 11.0735C14.1393 11.0408 14.108 11.0063 14.0788 10.9701C13.9606 10.8372 13.8523 10.7067 13.6455 10.7338C13.5348 10.7461 13.4437 10.9652 13.4979 11.4083C13.5028 11.4378 13.5028 11.4698 13.5028 11.5018Z" fill="#374E58"/>
<path d="M40.624 28.0952C40.533 28.0533 40.4124 28.0582 40.2942 28.0607H40.1834L38.7459 28.0484C38.0812 28.0464 37.4166 28.0406 36.752 28.0312H36.7373C36.463 28.0448 36.1887 28.0047 35.9299 27.913C35.6805 27.8373 35.4194 27.8081 35.1594 27.8268H35.0191C34.7992 27.8386 34.5911 27.9296 34.4331 28.083C34.2752 28.2364 34.1782 28.4419 34.16 28.6613C34.1523 29.0182 34.1506 29.3752 34.1551 29.7321L34.1576 30.1973V30.249H34.1477V31.3788C34.1477 31.497 34.1477 31.6152 34.1527 31.7333C34.1576 31.8441 34.192 31.9228 34.2487 31.9573C34.3151 31.9967 34.4013 31.9696 34.4604 31.9401L40.6117 28.8853C40.661 28.8607 40.7028 28.8213 40.7496 28.7795L40.784 28.7475C40.88 28.6613 40.981 28.5308 40.917 28.3955C40.8543 28.2664 40.7515 28.161 40.624 28.0952Z" fill="#374E58"/>
<path d="M30.6425 28.5358L30.1477 28.5308L29.5447 28.5284C29.3477 28.5308 29.1557 28.4718 28.9785 28.4176C28.8997 28.393 28.821 28.3684 28.7447 28.3487C28.3336 28.2502 27.9299 28.1099 27.541 27.9745C27.0684 27.8121 26.581 27.6422 26.0813 27.5438C25.3576 27.4059 24.9071 27.0391 24.7397 26.4558C24.6921 26.312 24.6268 26.1748 24.5453 26.0471C24.5108 25.9881 24.4493 25.9339 24.4124 25.9315L24.1613 25.9093C23.7822 25.8773 23.3908 25.8453 23.0216 25.6828C22.9896 25.6656 22.901 25.6927 22.8542 25.7296C22.6253 25.9093 22.3693 25.9019 22.1256 25.8945L22.0099 25.8921C21.7268 25.8921 21.6136 26.0004 21.5496 26.3253C21.5061 26.5648 21.3953 26.787 21.2301 26.9657C21.0648 27.1445 20.852 27.2724 20.6167 27.3345C20.4968 27.3715 20.3799 27.4176 20.2671 27.4724C20.1712 27.5193 20.0726 27.5604 19.9717 27.5955C19.5853 27.7259 19.184 27.8342 18.7976 27.9401C18.3699 28.0505 17.9462 28.1761 17.5274 28.3167C17.1593 28.4652 16.765 28.538 16.3681 28.5308C16.1047 28.5161 15.8339 28.5284 15.573 28.5358L15.5434 28.5382C15.4309 28.5428 15.3193 28.561 15.2111 28.5924C15.061 28.6318 14.9305 28.8804 14.9305 29.1241C14.9305 29.2865 14.9871 29.3604 15.1422 29.4022C15.3392 29.446 15.523 29.5357 15.6788 29.664C15.8345 29.7924 15.9576 29.9557 16.0382 30.1407C16.0554 30.1801 16.1047 30.2145 16.1564 30.2465C16.1687 30.2588 16.1834 30.2662 16.1957 30.2761C16.2647 30.3253 16.3754 30.3401 16.4911 30.313C16.5994 30.2859 16.6856 30.2268 16.72 30.1555C16.8013 29.9856 16.8751 29.8158 16.9539 29.6213C17.0868 29.3111 17.3133 29.1511 17.6333 29.1462C17.8277 29.1413 18.0271 29.1511 18.2216 29.129C18.5834 29.0921 18.7607 29.3087 18.9305 29.5598C19.0388 29.7222 19.1594 29.8158 19.2825 29.833C19.3859 29.8527 19.4917 29.8182 19.5976 29.737C19.8142 29.5721 20.0087 29.3998 20.0284 29.1142C20.0604 28.6736 20.3164 28.4348 20.7717 28.425C20.981 28.4225 21.232 28.4151 21.4856 28.4225C21.7317 28.4275 21.7884 28.6342 21.8253 28.7696C21.8376 28.8139 21.8573 28.841 21.877 28.8459C21.8991 28.8484 21.9385 28.8311 21.9754 28.7918C22.075 28.6835 22.1446 28.5512 22.1773 28.4078C22.325 27.8318 22.4431 27.7382 23.0191 27.7333H23.1767C23.3687 27.7333 23.5582 27.7259 23.7305 27.8761C23.9865 28.1001 24.2154 28.3339 24.1859 28.7105C24.186 28.7399 24.1937 28.7687 24.208 28.7942C24.2154 28.809 24.2277 28.8238 24.24 28.8385L24.2548 28.8287C24.2794 28.8115 24.3188 28.7844 24.3213 28.7696C24.3533 28.6268 24.4271 28.4398 24.6708 28.425C24.8924 28.4151 25.0868 28.4127 25.2665 28.4201C25.845 28.4447 26.1157 28.6662 26.3102 29.2668C26.3162 29.2918 26.3187 29.3175 26.3176 29.3431L26.32 29.385C26.4111 29.6779 26.5564 29.7985 26.8542 29.8355C27.0905 29.8625 27.2874 29.7493 27.3613 29.5302C27.4524 29.2521 27.6099 29.129 27.8807 29.129H27.9225L28.0136 29.1364C28.1391 29.1413 28.2671 29.1487 28.3927 29.1364C28.418 29.1344 28.4435 29.1335 28.469 29.1339C28.8087 29.1339 29.0253 29.3407 29.237 29.5721C29.3373 29.6924 29.3968 29.8415 29.4068 29.9979L29.4339 30.1407C29.4511 30.2071 29.5225 30.2711 29.621 30.3081C29.7367 30.3475 29.8622 30.3401 29.9336 30.2859L29.9607 30.2662C30.0739 30.1825 30.2019 30.0865 30.2364 29.9782C30.3053 29.7641 30.4357 29.6385 30.6671 29.5622C30.8025 29.5179 30.9453 29.4564 31.0905 29.3825C31.1791 29.3382 31.221 29.2619 31.2234 29.1438C31.2284 28.8459 31.2185 28.6933 31.1447 28.617C31.0856 28.5579 30.9748 28.5358 30.7484 28.5358H30.6425Z" fill="#CE8647"/>
<path d="M20.3336 38.3869C20.6634 38.1629 21.0376 38.0915 21.4733 38.1654C21.776 38.2171 21.8228 38.3844 21.8105 38.5124C21.7883 38.7143 21.8523 38.8915 21.9188 39.0786C21.968 39.2189 22.0197 39.3641 22.032 39.5167C22.0517 39.7506 22.0542 39.9869 22.0566 40.2158L22.0591 40.5826C22.0616 40.6441 22.0763 40.686 22.096 40.6958C22.1059 40.7007 22.1428 40.7106 22.2486 40.6343C22.4803 40.4597 22.7611 40.3624 23.0511 40.3561C23.3665 40.3675 23.6714 40.472 23.9274 40.6564C23.9625 40.676 23.9997 40.6917 24.0382 40.7032L24.0677 40.7155C24.0767 40.3422 24.1254 39.9709 24.2129 39.6078C24.2893 39.2386 24.368 38.8571 24.3508 38.4706C24.3483 38.3869 24.4197 38.2663 24.496 38.2343L24.5699 38.2047C24.7619 38.1235 24.9613 38.0374 25.168 38.0226C25.2813 38.0152 25.4093 38.1161 25.5151 38.2072L25.5766 38.2589L25.5914 38.2687C25.7219 38.3795 25.808 38.4386 25.9114 38.3574C25.936 38.3352 25.9803 38.2712 25.9951 38.0792C26.0049 37.9414 26.0049 37.7986 26.0049 37.6607C26.0025 37.5648 26.0025 37.4687 26.0049 37.3727C26.0099 37.2103 25.9483 37.0897 25.8277 37.0281C25.456 36.8411 25.2049 36.526 25.0376 36.0337C25.0056 35.9377 24.9613 35.8417 24.9194 35.7506C24.8825 35.6694 24.8431 35.5881 24.8111 35.5044C24.5699 34.8595 24.3853 34.7192 23.7674 34.7167H23.216C22.8542 34.7167 22.48 34.7192 22.1108 34.7118H22.1009C21.8843 34.7118 21.7145 34.8251 21.5963 35.0466C21.3375 35.5211 21.1025 36.0083 20.8923 36.5063C20.846 36.6418 20.7694 36.7651 20.6683 36.8666C20.5672 36.9681 20.4443 37.0452 20.3089 37.0921C20.1982 37.1315 20.1489 37.198 20.1539 37.2989L20.176 37.6509C20.1883 37.8749 20.2006 38.1087 20.2228 38.3352C20.2553 38.3607 20.2932 38.3783 20.3336 38.3869Z" fill="#A9341D"/>
<path d="M28.6043 37.2374V37.0823C28.6019 37.0011 28.5846 36.9445 28.5575 36.9297C28.528 36.9149 28.4689 36.9371 28.3975 36.9838C28.24 37.0921 28.0751 37.0774 27.9052 36.9371C27.8166 36.8657 27.7305 36.7894 27.6468 36.7131C27.5262 36.6072 27.4031 36.4989 27.2751 36.4029C27.2037 36.3488 27.0634 36.3586 26.9452 36.4275C26.8591 36.4743 26.8099 36.5408 26.8148 36.5974C26.8343 36.9344 26.7968 37.2722 26.704 37.5968C26.6425 37.8749 26.576 38.1629 26.5908 38.4509C26.6055 38.8029 26.4012 38.9211 26.1846 39.0441L26.1132 39.086C25.8499 39.2435 25.6357 39.2165 25.424 38.9998C25.4033 38.9787 25.382 38.9582 25.36 38.9383C25.3231 38.9014 25.2862 38.8669 25.2542 38.83C25.1705 38.7365 25.0671 38.7586 24.9982 38.7955C24.9662 38.8103 24.9292 38.8866 24.9243 38.9481C24.9022 39.1303 24.8948 39.3174 24.8849 39.4971C24.8677 39.8934 24.8505 40.2995 24.7052 40.7032C24.6457 40.9236 24.629 41.1534 24.656 41.3801C24.6609 41.5008 24.6659 41.6263 24.6609 41.7469C24.6511 41.9709 24.3902 42.2491 24.1637 42.2761L24.1415 42.2786C23.9791 42.2786 23.7108 42.0817 23.6542 41.9118C23.6345 41.8503 23.6271 41.7863 23.6197 41.7248C23.6173 41.6713 23.6082 41.6184 23.5926 41.5672C23.5585 41.4611 23.5087 41.3607 23.4449 41.2694C23.4023 41.2105 23.3446 41.1641 23.2779 41.1351C23.2113 41.1061 23.138 41.0955 23.0659 41.1045C22.9255 41.1143 22.8099 41.1857 22.7606 41.294C22.7185 41.3825 22.6783 41.472 22.64 41.5623C22.5725 41.7236 22.497 41.8813 22.4135 42.0349C22.3545 42.1432 22.2068 42.222 22.1009 42.2417C22.0025 42.2515 21.8769 42.1703 21.7859 42.094C21.6455 41.9783 21.4905 41.7986 21.488 41.6805C21.4855 41.5549 21.4782 41.4318 21.4708 41.3063C21.4453 40.9942 21.4445 40.6806 21.4683 40.3685C21.4803 40.1314 21.4408 39.8946 21.3526 39.6743C21.2694 39.4566 21.2269 39.2255 21.2271 38.9925C21.2345 38.8817 21.2099 38.8054 21.1606 38.7783C21.0966 38.7463 20.9809 38.7832 20.848 38.8817L20.7939 38.9358L20.7717 38.9605C20.5206 39.2238 20.2794 39.2534 19.9791 39.054L19.8929 38.9998C19.7182 38.894 19.5557 38.7906 19.568 38.5051C19.5754 38.2958 19.568 38.0841 19.5631 37.8774C19.5582 37.6952 19.5532 37.5057 19.5582 37.3186C19.5603 37.0924 19.4998 36.8701 19.3834 36.6761C19.2923 36.5063 19.2332 36.4201 19.1692 36.4054C19.1003 36.3906 19.0043 36.4448 18.8517 36.5481C18.7092 36.6434 18.5656 36.737 18.4209 36.8288L18.1649 36.9912C17.9385 37.1389 17.7366 36.9888 17.6702 36.9395C17.6135 36.8977 17.5963 36.9001 17.5963 36.9001C17.5963 36.9001 17.584 36.9075 17.5766 36.9494C17.4363 37.6485 17.5889 38.0866 18.0566 38.3254C18.7212 38.6651 19.1028 39.2017 19.2603 40.0066C19.2809 40.0996 19.3106 40.1902 19.3489 40.2774C19.3834 40.3685 19.4203 40.4595 19.44 40.5555C19.4646 40.6761 19.5114 40.7401 19.6049 40.7869C19.6517 40.8066 19.696 40.8337 19.7428 40.8583C19.8306 40.9103 19.9239 40.9524 20.0209 40.9838C20.3508 41.0725 20.5329 41.2718 20.6462 41.6706C20.7052 41.8774 20.8012 42.0792 20.8972 42.2737C20.9711 42.4238 21.0449 42.5765 21.104 42.7365C21.1483 42.8571 21.2394 42.8915 21.3428 42.9334C21.4192 42.9567 21.4897 42.9962 21.5495 43.0491C21.6062 43.1057 21.6554 43.0885 21.7465 43.0466C21.8326 43.0097 21.9532 42.9555 22.0689 43.0638C22.1206 43.1131 22.2757 43.1352 22.3274 43.1032C22.5268 42.9801 22.7483 42.9285 23.0363 42.9432C23.0905 42.9449 23.1447 42.944 23.1988 42.9408H23.2997C23.4572 42.9408 23.6123 42.958 23.7502 43.0835C23.8412 43.1672 23.92 43.1352 24.0382 43.0712C24.1366 43.0195 24.2597 42.9555 24.3852 43.0417C24.4935 43.1155 24.5945 43.1451 24.6855 43.1205C24.7963 43.0958 24.8997 42.9998 24.9908 42.8398C25.232 42.4189 25.424 41.9685 25.584 41.5771C25.6471 41.4062 25.7495 41.2526 25.8829 41.1286C26.0163 41.0046 26.177 40.9137 26.352 40.8632C26.5908 40.7918 26.7089 40.6688 26.7655 40.4349C26.7852 40.3561 26.8172 40.2848 26.8492 40.2134C26.8837 40.1459 26.911 40.0749 26.9305 40.0017C27.0462 39.4848 27.3071 39.0565 27.7255 38.6921C27.7969 38.6306 27.8659 38.5641 27.9348 38.4977C28.0357 38.3992 28.1391 38.2958 28.2523 38.2097C28.5428 37.9931 28.6535 37.7075 28.6043 37.3038V37.2374Z" fill="#CE8647"/>
<path d="M46.064 4.55049L46.0468 4.54802C45.8203 4.5111 45.5889 4.47418 45.4166 4.60464C44.8702 5.02556 44.2499 5.32095 43.6468 5.60649C43.4819 5.68526 43.3169 5.76402 43.152 5.84772C42.6935 6.05603 42.3053 6.39294 42.0345 6.81756C41.9156 7.02449 41.7699 7.21484 41.6012 7.38372C41.0985 7.87394 40.6683 8.43343 40.3237 9.04526C40.1098 9.42107 39.8627 9.77696 39.5852 10.1086C39.3584 10.3734 39.1626 10.6633 39.0019 10.9726C38.6579 11.6533 38.1002 12.2024 37.4142 12.5357L37.264 12.6071C36.8891 12.7722 36.5347 12.9803 36.208 13.2274C36.0514 13.3465 35.8791 13.4434 35.696 13.5154C35.5902 13.5646 35.4794 13.6139 35.3785 13.6729C35.2976 13.7197 35.2279 13.7836 35.1742 13.86L35.2972 14.1357C35.408 14.3917 35.5237 14.6526 35.6246 14.9234C35.7379 15.2237 35.8659 15.5265 35.9889 15.8219C36.0751 16.0213 36.1612 16.2231 36.24 16.4249C36.3483 16.6933 36.1982 16.8729 36.0554 16.9985C35.9545 17.0871 35.7699 17.092 35.7059 17.0871C35.6616 17.0871 35.6197 17.0477 35.5902 17.0182C35.5754 16.9985 35.5188 16.9271 35.5262 16.8656C35.5852 16.3068 35.3514 15.8465 35.1028 15.3616L35.0388 15.2336C34.9428 15.044 34.8788 14.8348 34.8172 14.6354C34.8007 14.5767 34.7826 14.5184 34.7631 14.4606C34.7188 14.3203 34.6105 14.2588 34.4554 14.2563C34.3049 14.257 34.1557 14.2845 34.0148 14.3376C33.9534 14.3582 33.8974 14.3924 33.851 14.4376C33.8046 14.4827 33.7688 14.5377 33.7465 14.5985C33.7311 14.651 33.7283 14.7064 33.7381 14.7603C33.7479 14.8141 33.7702 14.8649 33.8031 14.9086C33.9466 15.1422 34.056 15.395 34.128 15.6594C34.1994 15.8785 34.2708 16.1049 34.3914 16.3043C34.704 16.836 34.6843 17.4243 34.6425 17.8182C34.5883 18.3277 34.3914 18.7166 34.0542 18.9751C33.9483 19.0563 33.7834 19.0736 33.6702 18.9529C33.6209 18.8988 33.5692 18.7733 33.6037 18.6945C33.6923 18.4705 33.7809 18.2539 33.9089 18.0594C34.0936 17.7714 34.1132 17.476 33.968 17.0994C33.8879 16.8864 33.8132 16.6713 33.744 16.4545C33.6923 16.3019 33.6431 16.1517 33.5889 16.0016L33.5692 15.94C33.4979 15.7456 33.4265 15.5437 33.3305 15.3616C33.2593 15.2314 33.1591 15.1193 33.0376 15.0342C32.9465 14.9726 32.8702 15.0145 32.7496 15.0883L32.6659 15.1351C32.5558 15.1902 32.4364 15.2245 32.3139 15.236C32.144 15.2557 32.0652 15.3173 32.0209 15.4625C31.9889 15.5708 31.9397 15.6717 31.8929 15.7702C31.8553 15.8455 31.8216 15.9227 31.792 16.0016C31.6884 16.279 31.5866 16.5572 31.4868 16.836C31.3268 17.2742 31.1619 17.7296 30.992 18.1751C30.9772 18.2145 30.9329 18.2391 30.8862 18.2563L30.832 18.436C30.7313 18.7446 30.6644 19.0632 30.6326 19.3862L30.6252 19.4231C31.1619 19.492 31.4671 19.8046 31.5483 20.4225C31.6 20.8016 31.6 20.8016 31.8979 20.804L32.5748 20.7966L33.1631 20.7942C33.4142 20.7942 33.6677 20.7966 33.9188 20.8089C34.3176 20.8286 34.7188 20.7696 35.1052 20.708C35.3588 20.6662 35.6222 20.6268 35.8831 20.6096C36.0914 20.6001 36.2941 20.5386 36.4725 20.4307C36.651 20.3228 36.7995 20.1719 36.9046 19.9917C37.264 19.4502 37.6234 18.8963 37.9705 18.3573C38.2511 17.9216 38.5317 17.4859 38.8172 17.0526C38.9502 16.8533 39.0954 16.6588 39.2332 16.4693C39.3686 16.2871 39.5065 16.1025 39.632 15.9105C39.7083 15.7948 39.8265 15.7333 39.9372 15.6742C40.0677 15.6077 40.1859 15.5437 40.2351 15.4009C40.2991 15.2139 40.208 15.0736 40.1096 14.9234C40.0253 14.8161 39.9702 14.689 39.9496 14.5542L39.9299 14.5271C39.9134 14.5104 39.9008 14.4902 39.8929 14.468C39.6862 13.9216 39.6862 13.4613 39.888 13.0576C40.1563 12.5234 40.4 11.9671 40.6339 11.428C40.7643 11.1277 40.8997 10.8151 41.0376 10.5123C41.2837 9.97079 41.4806 9.47849 41.6406 9.00833C41.7883 8.5751 41.9754 8.16649 42.1379 7.82433C42.384 7.30987 42.8123 6.92587 43.4474 6.65018C43.4646 6.64279 43.5188 6.61818 43.6591 6.76833C43.696 6.81018 43.6936 6.89141 43.6788 6.93326C43.5976 7.16464 43.4203 7.30249 43.248 7.44033C43.2001 7.47573 43.1533 7.51267 43.1077 7.5511C42.8257 7.8134 42.6177 8.14535 42.5046 8.51356C42.3612 8.91367 42.2077 9.3101 42.0443 9.70249C41.8991 10.0569 41.7489 10.4213 41.6185 10.7856C41.4462 11.2729 41.2222 11.7382 41.0056 12.1886C40.8532 12.4975 40.7087 12.8102 40.5723 13.1265C40.5496 13.1787 40.5198 13.2276 40.4837 13.2717C40.4466 13.3169 40.4182 13.3687 40.4 13.4243C40.3558 13.5669 40.3457 13.7178 40.3705 13.8649C40.4517 14.1726 40.5428 14.5222 40.8037 14.7757C40.8825 14.8545 40.9046 14.8348 40.9243 14.8176L41.0523 14.6994C41.6234 14.1677 42.1625 13.6631 42.5342 12.9714C42.8616 12.3536 43.1471 11.7013 43.4228 11.0711C43.6689 10.5123 43.9225 9.93387 44.2056 9.37756C44.2334 9.31933 44.2517 9.257 44.2597 9.19295C44.2696 9.14372 44.2794 9.09695 44.2942 9.05018C44.7446 7.6791 45.2542 6.12587 46.0517 4.74002C46.0804 4.68892 46.0996 4.63305 46.1083 4.5751C46.0949 4.56463 46.08 4.55632 46.064 4.55049Z" fill="#CE8647"/>
<path d="M32.8825 23.4501C33.1065 23.4501 33.3305 23.4501 33.5545 23.4452C33.7243 23.4403 33.8154 23.3664 33.8253 23.2212L33.8326 23.1424C33.8407 23.092 33.844 23.0409 33.8425 22.9898L33.808 21.9215L33.7933 21.4957C33.4905 21.3677 33.1803 21.3824 32.8554 21.3997C32.6831 21.4071 32.5059 21.4169 32.3336 21.4021C32.2171 21.3964 32.1005 21.3956 31.984 21.3997C31.8634 21.4042 31.7426 21.4025 31.6222 21.3947C31.4923 21.382 31.3612 21.3993 31.2391 21.4454C31.117 21.4915 31.0072 21.5652 30.9182 21.6606L30.896 21.6827C30.3717 22.1775 30.3717 22.1775 30.3643 22.9554C30.3619 23.0341 30.3643 23.1129 30.3668 23.1917C30.3717 23.3541 30.4456 23.4378 30.5883 23.4403H32.0653V23.4477L32.8825 23.4501ZM31.9274 22.5935L31.7453 22.5911V22.6009L31.6936 22.596L31.4893 22.5984L31.2849 22.6009C31.1865 22.6009 31.088 22.5984 30.9871 22.5886C30.9479 22.5867 30.9095 22.576 30.875 22.5572C30.8405 22.5385 30.8107 22.5122 30.7877 22.4803C30.7701 22.4509 30.7595 22.4179 30.7565 22.3838C30.7535 22.3497 30.7583 22.3154 30.7705 22.2834C30.8197 22.1406 30.864 22.0766 30.9206 22.0667C31.3933 21.988 31.8954 21.9831 32.5576 22.0544C32.6413 22.0618 32.6979 22.2046 32.7176 22.2637C32.7307 22.2986 32.7355 22.3362 32.7317 22.3734C32.7279 22.4105 32.7154 22.4463 32.6954 22.4778C32.6752 22.5075 32.6485 22.5321 32.6174 22.55C32.5863 22.5679 32.5515 22.5786 32.5157 22.5812C32.3199 22.5951 32.1236 22.5992 31.9274 22.5935Z" fill="#374E58"/>
<path d="M31.1963 31.9795C31.1939 31.8564 31.1889 31.7063 31.1939 31.5192C31.1988 31.2952 31.1988 31.0638 31.1963 30.8398V30.5124C31.1988 30.4534 31.2013 30.3992 31.1865 30.3549C31.1643 30.2884 31.1225 30.2269 31.0856 30.2121C31.0388 30.1875 30.9477 30.1949 30.9256 30.2171C30.7926 30.3327 30.6696 30.4632 30.5489 30.5887C30.5073 30.6308 30.4663 30.6735 30.4259 30.7167C30.3051 30.8368 30.1432 30.9063 29.9729 30.9112C29.2246 30.9678 29.1262 30.9087 28.7569 30.1974L28.7102 30.1063C28.6733 30.0349 28.6363 29.9586 28.5945 29.8872C28.5477 29.8035 28.4443 29.7444 28.3213 29.7297C28.1859 29.7174 28.048 29.7567 27.9693 29.8404L27.952 29.8577C27.8782 29.9364 27.8019 30.0177 27.7773 30.1038C27.6936 30.3918 27.4819 30.4337 27.2997 30.4337H27.2529L27.0363 30.4411C26.7919 30.474 26.5431 30.4418 26.3151 30.3475C26.0443 30.254 25.7096 30.1407 25.7169 29.678C25.7169 29.5623 25.6456 29.4343 25.5766 29.3087L25.5003 29.1684C25.4585 29.0798 25.3699 29.0232 25.2566 29.0134C25.1924 29.007 25.1277 29.018 25.0692 29.0453C25.0107 29.0726 24.9607 29.1151 24.9243 29.1684C24.9194 29.1734 24.9169 29.1906 24.9145 29.2029C24.9122 29.2285 24.9056 29.2535 24.8948 29.2767C24.8554 29.3506 24.8062 29.4195 24.7643 29.4786C24.7005 29.5588 24.6192 29.6233 24.5266 29.6673C24.4341 29.7112 24.3327 29.7334 24.2302 29.7321H24.1883C24.0819 29.7257 23.979 29.6914 23.89 29.6326C23.801 29.5739 23.729 29.4927 23.6813 29.3974C23.6046 29.247 23.5364 29.0925 23.4769 28.9346C23.4277 28.8041 23.3736 28.6687 23.3096 28.5432C23.2702 28.462 23.1446 28.3611 23.1077 28.3611C22.9896 28.4029 22.8468 28.5038 22.8049 28.6121C22.7705 28.7007 22.7508 28.7967 22.7286 28.8952C22.7063 29.0714 22.6449 29.2405 22.5489 29.39C22.5268 29.422 22.512 29.454 22.4948 29.4835C22.4406 29.5869 22.3766 29.7026 22.1969 29.7075L22.0616 29.7149C21.872 29.7297 21.6554 29.7444 21.488 29.5672C21.4191 29.4934 21.3674 29.4023 21.3157 29.3137C21.2886 29.2669 21.2616 29.2201 21.2296 29.1734C21.1754 29.0897 21.1016 29.0429 21.0179 29.0404C20.9243 29.0355 20.8234 29.0897 20.7446 29.1832C20.6825 29.2698 20.6427 29.3704 20.6289 29.4761L20.6019 29.5967C20.4566 30.1038 20.1588 30.3672 19.6689 30.4238C19.1397 30.4854 18.5514 30.4657 18.1871 29.8355C18.1822 29.8257 18.1649 29.8134 18.1453 29.8035L18.1083 29.7764C18.032 29.7149 17.8548 29.7518 17.7342 29.8257C17.6111 29.9044 17.5643 30.0324 17.5151 30.1654C17.4708 30.2884 17.4265 30.4189 17.3157 30.5124C17.2676 30.5527 17.2224 30.5963 17.1803 30.6429C17.0769 30.7512 16.9711 30.8644 16.8406 30.8841C16.4049 30.9457 15.8609 31.022 15.5163 30.4927L15.3169 30.1875L15.2529 30.094L15.2062 30.2441C15.177 30.3175 15.1579 30.3945 15.1496 30.4731C15.1446 30.7217 15.1471 30.9727 15.1471 31.2238C15.1496 31.5611 15.1496 31.9081 15.1397 32.2503C15.1323 32.5678 15.2333 32.686 15.5557 32.7303C15.8905 32.7746 16.1563 32.9691 16.4099 33.1537C16.5625 33.2669 16.7225 33.3826 16.8923 33.4638C16.9736 33.5032 17.008 33.6115 17.0425 33.7149C17.05 33.7416 17.0591 33.7679 17.0696 33.7937C17.0868 33.838 17.0966 33.8847 17.1089 33.9315C17.1193 33.9944 17.1401 34.0551 17.1705 34.1112C17.2 34.158 17.2566 34.1851 17.3059 34.222C17.3314 34.4699 17.3776 34.7152 17.4437 34.9555C17.4086 34.9593 17.3762 34.976 17.3526 35.0023C17.3363 35.0229 17.3244 35.0466 17.3176 35.072C17.3108 35.0974 17.3094 35.124 17.3133 35.15C17.3329 35.3223 17.3871 35.4946 17.4388 35.6595C17.5287 35.8988 17.5754 36.1522 17.5766 36.4078C17.5742 36.4349 17.5816 36.4423 17.5816 36.4423C17.5865 36.4423 17.6111 36.4447 17.6702 36.4103C17.7329 36.3766 17.8 36.3518 17.8696 36.3364C17.9557 36.3118 18.0394 36.2872 18.0739 36.2404C18.3939 35.7924 18.8369 35.7924 19.2776 35.7949H19.4006C19.7723 35.7949 20.0185 35.9697 20.1514 36.3315C20.176 36.3955 20.2056 36.4251 20.2179 36.4251C20.2179 36.4251 20.24 36.4201 20.2671 36.3635C20.4813 35.9327 20.7225 35.4207 20.9071 34.8718C20.974 34.6553 21.1087 34.466 21.2912 34.3317C21.4738 34.1975 21.6946 34.1254 21.9213 34.126C22.4529 34.1063 22.9945 34.1137 23.5188 34.1186C23.8166 34.1235 24.1145 34.126 24.4148 34.126H24.4173C24.7225 34.126 24.9588 34.2761 25.1188 34.5715C25.1639 34.6582 25.201 34.7488 25.2296 34.8423C25.2763 34.9777 25.3182 35.1032 25.4019 35.1943C25.5106 35.3302 25.5789 35.494 25.5988 35.6669C25.6157 35.8089 25.6682 35.9444 25.7514 36.0607C25.8425 36.1715 25.9409 36.2724 26.0345 36.2749C26.0936 36.2749 26.16 36.2331 26.2314 36.1469C26.4628 35.8811 26.6966 35.7703 26.9896 35.7924L27.1126 35.7998C27.3809 35.8146 27.6369 35.8294 27.8929 36.0583C28.1145 36.2577 28.2745 36.3414 28.3951 36.3069C28.5157 36.2774 28.6191 36.1297 28.7249 35.8417C28.7321 35.821 28.7429 35.8018 28.7569 35.7851L28.7766 35.7506C28.7816 35.6817 28.7914 35.6152 28.8013 35.5463C28.8377 35.389 28.8452 35.2263 28.8234 35.0663C28.8062 34.9949 28.752 34.9703 28.6831 34.958C28.8333 34.7143 28.9416 34.4164 29.0105 34.1457C29.0302 34.0718 29.0499 33.9955 29.0646 33.9217C29.3551 33.4097 29.8253 33.1266 30.2708 32.9321C31.2111 32.526 31.2111 32.526 31.1963 31.9795Z" fill="#7C411C"/>
<path d="M43.9471 17.3308C43.7994 17.1437 43.5582 17.0601 43.3859 17.1364L43.2382 17.1979C43.0733 17.2668 42.9009 17.3357 42.7754 17.4441C42.4209 17.7542 42 17.9462 41.5963 18.1333C41.475 18.1892 41.3544 18.2467 41.2345 18.3056C40.3459 18.7462 39.4277 19.1991 38.5711 19.7481C38.4933 19.8008 38.4229 19.8637 38.3619 19.9351C38.2388 20.0558 38.1231 20.1714 37.9877 20.1739C37.6406 20.1764 37.4462 20.3708 37.2419 20.5776C37.1794 20.6416 37.1146 20.7032 37.0474 20.7622C37.0074 20.7993 36.968 20.837 36.9293 20.8754C36.8037 21.001 36.6733 21.1265 36.5453 21.1167C36.3016 21.0945 36.0973 21.1758 35.8757 21.2594C35.6575 21.3601 35.4194 21.4106 35.1791 21.4071C34.8911 21.3825 34.7582 21.3948 34.6942 21.4539C34.6277 21.5154 34.6253 21.6558 34.6253 21.9216L34.6277 22.1407C34.6302 22.4582 34.6302 22.7856 34.6228 23.1105C34.6225 23.2362 34.5885 23.3594 34.5243 23.4674C34.2954 23.8022 33.904 24.2034 33.3354 24.2281C32.6045 24.249 31.8732 24.2514 31.1422 24.2354C30.8427 24.2301 30.5432 24.226 30.2437 24.2231H30.224L30.2068 24.2084C30.0616 24.0484 29.9385 24.0976 29.7514 24.1961L29.6505 24.2478L29.4954 24.3142C29.3341 24.3807 29.1777 24.4589 29.0277 24.5481C28.8037 24.6908 28.7003 24.8607 28.7028 25.0822C28.7102 25.4834 28.7003 25.8921 28.6929 26.2859L28.6856 26.6281C28.6831 26.6871 28.6413 26.7511 28.5699 26.7979C28.5083 26.8373 28.4173 26.8668 28.3459 26.8373C28.2129 26.7807 28.144 26.7216 28.1416 26.6625C28.1366 26.4336 28.1366 26.1998 28.1342 25.9733C28.1342 25.6558 28.1317 25.3259 28.112 25.0034C28.0849 24.5456 28.3557 24.2748 28.624 24.0705C28.816 23.9228 29.0228 23.7727 29.2493 23.7136C29.552 23.6348 29.6283 23.4059 29.712 23.1622L29.7539 23.0391C29.808 22.8988 29.7957 22.7265 29.7859 22.5616C29.7809 22.4902 29.776 22.4188 29.7785 22.3474C29.7785 22.1825 29.7071 22.1038 29.5594 22.1013H29.2616C28.5699 22.0943 27.8782 22.0935 27.1865 22.0988C26.8074 22.1013 26.6203 22.2514 26.576 22.5813C26.5539 22.7462 26.4899 22.8865 26.4283 23.0219C26.3766 23.1351 26.3274 23.241 26.3028 23.3567C26.2757 23.4797 25.9656 23.5019 25.9631 23.5019H25.9582C25.872 23.5019 25.7957 23.3542 25.7785 23.2951C25.6997 23.0022 25.7933 22.7413 25.8868 22.4902C25.9409 22.3401 25.9976 22.185 26.0123 22.0299C26.0222 21.9437 26.1034 21.8502 26.1773 21.8108C26.2659 21.7641 26.352 21.7124 26.4382 21.6607C26.7729 21.4588 27.1249 21.2545 27.5976 21.2914C28.1448 21.3291 28.6936 21.3398 29.2419 21.3234C29.52 21.321 29.8056 21.3185 30.0862 21.321H30.1009C30.4259 21.321 30.6351 21.1733 30.7582 20.8582C30.7828 20.7942 30.8148 20.7327 30.8443 20.6736L30.9108 20.5382C30.9428 20.4644 30.928 20.3487 30.8739 20.2379C30.8222 20.1345 30.7434 20.0582 30.6696 20.0385C30.5227 20.004 30.3724 19.9859 30.2216 19.9844L29.776 19.977C29.2927 19.9635 28.8091 19.9684 28.3262 19.9917C27.9348 20.0188 27.6443 19.8711 27.3809 19.5241C27.3098 19.428 27.2409 19.3303 27.1742 19.2311C27.024 19.0145 26.8689 18.7905 26.6696 18.6034C26.5804 18.5111 26.4732 18.4381 26.3546 18.389C26.2361 18.3399 26.1087 18.3157 25.9803 18.3179H25.9729C23.8043 18.3327 21.9016 18.3302 20.1514 18.3179H20.144C20.0158 18.3117 19.8879 18.3369 19.7717 18.3914C19.6554 18.4459 19.5542 18.528 19.4769 18.6305C19.1988 18.9751 18.9305 19.3148 18.6769 19.6398C18.5902 19.7571 18.4753 19.8507 18.3427 19.9118C18.2102 19.973 18.0644 19.9996 17.9188 19.9893C17.488 19.9745 17.0499 19.977 16.624 19.9794H15.8979C15.76 19.9794 15.6468 20.0336 15.5213 20.1542C15.3096 20.3634 15.3637 20.6268 15.4154 20.8804C15.4388 20.9882 15.4952 21.0859 15.5768 21.1601C15.6585 21.2342 15.7613 21.281 15.8708 21.2939C16.0086 21.3185 16.1563 21.3136 16.2991 21.3111C16.3508 21.3111 16.4025 21.3062 16.4517 21.3111H16.4862L17.2493 21.3062C17.8056 21.3013 18.3816 21.2988 18.9502 21.3136C19.3184 21.325 19.6692 21.4729 19.9345 21.7286C20.1997 21.9842 20.3604 22.3294 20.3853 22.697C20.3951 22.8519 20.3951 23.0073 20.3853 23.1622L20.3803 23.2951C20.3803 23.3641 20.336 23.4305 20.2671 23.4773C20.2362 23.4986 20.2008 23.5126 20.1637 23.5181C20.1266 23.5236 20.0887 23.5206 20.0529 23.5093C19.9816 23.4797 19.8905 23.4354 19.8486 23.3665C19.8067 23.2846 19.792 23.1915 19.8068 23.1007C19.8659 22.7142 19.6419 22.4656 19.3883 22.2244C19.2382 22.0841 19.0585 22.089 18.8665 22.0939H18.7483C18.1379 22.089 17.5003 22.089 16.8505 22.0939C16.6462 22.0939 16.5108 22.0964 16.4714 22.1431C16.432 22.1948 16.4665 22.3598 16.5256 22.6305C16.5609 22.7913 16.5758 22.9559 16.5699 23.1204C16.5643 23.211 16.5831 23.3014 16.6242 23.3823C16.6653 23.4633 16.7273 23.5317 16.8037 23.5807C16.8973 23.6496 17.0006 23.7111 17.0991 23.7727C17.2296 23.8514 17.3649 23.9327 17.488 24.0311L17.5323 24.0705C17.712 24.2133 17.9139 24.3733 17.9754 24.5751C18.1502 25.1314 18.3274 25.7788 18.2019 26.4385C18.1773 26.5641 18.0665 26.6748 17.9853 26.7536C17.9139 26.8225 17.7933 26.8398 17.7465 26.8447C17.6783 26.8514 17.6102 26.8311 17.5569 26.7881C17.5287 26.7614 17.5061 26.7294 17.4905 26.6939C17.4748 26.6584 17.4665 26.6201 17.4659 26.5813C17.4536 26.3893 17.4536 26.1973 17.4511 26.0102L17.4486 25.7468C17.4462 25.6164 17.4462 25.4859 17.4486 25.3554C17.4585 24.7154 17.4585 24.6785 16.464 24.2231C16.2203 24.1099 16.0726 24.1099 15.8831 24.2133C15.8043 24.2551 15.7059 24.2478 15.6123 24.2379L15.5065 24.2305H14.7877C14.2068 24.2305 13.6037 24.2305 13.0129 24.2453H12.9809C12.5354 24.2453 12.2031 24.0114 11.9249 23.7924C11.7009 23.6127 11.7083 23.3567 11.7157 23.1327V22.9801L11.7108 22.3721C11.7083 22.1037 11.7083 21.8256 11.6985 21.5548C11.6985 21.5179 11.6394 21.4441 11.6025 21.4317C11.496 21.3976 11.3832 21.3884 11.2726 21.4047C10.9379 21.4613 10.6351 21.3628 10.3422 21.2718C10.2314 21.2373 10.1182 21.2004 10.0049 21.1733C9.53669 21.06 9.11365 20.8077 8.79141 20.4496C8.69295 20.3462 8.55018 20.233 8.44187 20.233C8.17602 20.2305 8.0111 20.0902 7.85356 19.9548C7.80624 19.9149 7.75781 19.8763 7.70833 19.8391C7.33009 19.5673 6.94084 19.311 6.54156 19.0711L6.44556 19.0096C6.03924 18.7703 5.61451 18.5637 5.17541 18.3918C5.0031 18.3179 4.83079 18.2465 4.66094 18.1702C4.24741 17.9831 3.84864 17.7493 3.46464 17.5204C3.28415 17.4139 3.10281 17.3089 2.92064 17.2053C2.8556 17.1717 2.78709 17.1453 2.71633 17.1265C2.47756 17.065 2.32494 17.1856 2.16987 17.385C2.08371 17.5007 2.03448 17.6311 2.25602 17.8231C2.72125 18.2244 3.06833 18.729 3.4031 19.2164L3.45233 19.2902C3.95694 20.0262 4.47387 20.777 5.12371 21.3948C5.68002 21.9265 6.16741 22.5247 6.61541 23.2262C6.87879 23.6348 7.25541 24.1394 7.85356 24.4102C7.92987 24.4447 7.96925 24.4841 7.9791 24.5357C7.98894 24.5801 7.96925 24.6268 7.92741 24.6687C7.84405 24.7532 7.75524 24.8321 7.66156 24.905C7.62464 24.9345 7.58771 24.9074 7.55818 24.8853C7.54587 24.8779 7.52618 24.8607 7.51633 24.8607C7.1926 24.762 6.87666 24.6394 6.5711 24.4939C6.38439 24.407 6.19474 24.3265 6.00248 24.2527C5.82279 24.1837 5.63325 24.1247 5.4511 24.0656C5.08925 23.9524 4.71264 23.8317 4.36556 23.6373C4.00864 23.4379 3.87079 23.497 3.61233 23.7924C3.58633 23.8196 3.56668 23.8523 3.55476 23.888C3.54285 23.9238 3.53897 23.9617 3.54341 23.9991C3.54636 24.0249 3.55494 24.0498 3.56855 24.0719C3.58216 24.094 3.60047 24.1129 3.62218 24.1271C4.18833 24.5013 4.66341 24.9837 5.12371 25.4539C5.36987 25.705 5.62587 25.9659 5.89171 26.2047L5.92864 26.2416L5.97541 26.2834C6.64495 26.8127 7.4671 27.0539 8.18341 27.2385C8.42359 27.284 8.66932 27.2923 8.91202 27.2631L9.23448 27.2484H9.35017C9.60864 27.2484 9.87202 27.2459 10.1403 27.1844C9.99264 27.1105 9.87448 27.0022 9.75879 26.8964C9.64544 26.7763 9.51114 26.6778 9.36248 26.6059C9.16951 26.5245 9.01105 26.3782 8.91448 26.1924L8.86279 26.0816C8.68064 25.6927 8.49356 25.2914 8.43448 24.8754C8.37541 24.4865 8.3951 24.0804 8.41233 23.689C8.42218 23.529 8.4271 23.3665 8.43202 23.209C8.43202 23.145 8.47879 23.0785 8.55264 23.0317C8.59556 23.0026 8.64598 22.9863 8.69787 22.985C8.72495 22.985 8.7471 22.9899 8.76925 22.9998C8.89971 23.0613 8.96125 23.1154 8.96617 23.1745L8.97602 23.2804C9.00064 23.5216 9.02279 23.7702 8.99325 24.0114C8.9391 24.4693 9.07941 24.9001 9.21725 25.3136L9.26894 25.4736C9.36667 25.754 9.55902 25.9916 9.81295 26.1456C10.4357 26.5493 11.1643 27.0145 11.9176 27.4034C12.5059 27.7062 12.7717 28.1567 12.7791 28.8681C12.7988 30.2047 12.7988 31.4108 12.7791 32.553C12.77 33.0128 12.9424 33.4576 13.2591 33.7911C13.5446 34.1136 13.904 34.3499 14.2511 34.5764L14.5613 34.7807C14.8148 34.9554 15.056 35.1499 15.2923 35.3739C15.4869 35.5508 15.6393 35.7692 15.7381 36.0129C15.837 36.2566 15.8798 36.5194 15.8634 36.7819C15.8622 36.9108 15.8646 37.0396 15.8708 37.1684C15.8782 37.3136 15.8831 37.4662 15.8733 37.6164C15.8363 38.2268 16.0628 38.7585 16.5723 39.2434C16.8136 39.4748 17.0523 39.7161 17.2813 39.9524L17.6603 40.3388C17.8617 40.5351 18.0188 40.7722 18.1211 41.0341C18.2234 41.296 18.2686 41.5768 18.2536 41.8576C18.2441 42.3425 18.2433 42.8275 18.2511 43.3124C18.256 43.8859 18.2609 44.4816 18.2388 45.065C18.2093 45.8182 18.3569 46.4114 18.7065 46.9333C18.8002 47.0661 18.8717 47.2132 18.9182 47.369C19.1151 48.1542 19.4646 48.8656 19.9225 49.6927C20.0209 49.8699 20.0948 50.0496 20.1662 50.2244C20.3656 50.7191 20.6117 51.2065 20.848 51.6742L20.9637 51.9056C20.976 51.9179 21.0646 51.9351 21.1188 51.9228C21.168 51.9105 21.232 51.8539 21.2345 51.8219C21.2449 51.7535 21.2491 51.6843 21.2468 51.6151C21.2427 51.525 21.2509 51.4347 21.2714 51.3468L21.3206 51.1794C21.4265 50.8373 21.5225 50.5148 21.2862 50.1628C21.2025 50.0373 21.2197 49.8551 21.2345 49.6779L21.2443 49.5474C21.2591 49.2102 21.1754 48.8804 21.0917 48.5628C21.0129 48.2502 20.9293 47.9253 20.9366 47.5881C20.9302 47.5162 20.9066 47.447 20.8677 47.3862C20.8277 47.3169 20.8002 47.2411 20.7865 47.1622C20.7668 46.9481 20.6979 46.857 20.5034 46.7831C20.176 46.6576 20.0111 46.4041 20.0529 46.0865C20.0628 46.0102 20.0874 45.9068 20.1514 45.8502C20.2129 45.7985 20.3385 45.7641 20.4148 45.7985C20.5354 45.8551 20.6363 45.9536 20.7053 46.0201C20.9219 46.2465 21.1262 46.2638 21.3625 46.0791C21.4273 46.0302 21.4975 45.9889 21.5717 45.9561C21.6393 45.9247 21.7036 45.8868 21.7637 45.8428C21.9114 45.7247 22.0493 45.7813 22.1403 45.8207C22.1994 45.8428 22.2388 45.8921 22.256 45.961C22.2673 46.0233 22.2643 46.0873 22.2473 46.1483C22.2302 46.2093 22.1995 46.2656 22.1576 46.313L22.1108 46.3671C21.9459 46.5616 21.776 46.7634 21.4954 46.8398C21.4712 46.8627 21.452 46.8903 21.4388 46.921C21.5668 47.0785 21.5643 47.2681 21.5643 47.4502C21.5643 47.6225 21.5619 47.785 21.6726 47.9105C21.9688 48.2743 22.2109 48.6788 22.3914 49.1118C22.5071 49.3579 22.6277 49.6114 22.7705 49.8453C22.8088 49.9055 22.8615 49.9552 22.9238 49.99C22.9861 50.0248 23.0561 50.0436 23.1274 50.0447C23.1865 50.0447 23.2948 50.0299 23.3539 49.929L23.3686 49.9019C23.8954 49.033 24.4419 48.1345 24.7446 47.1351C24.7766 47.0318 24.7791 46.9579 24.752 46.9111C24.7323 46.8742 24.6929 46.8471 24.6339 46.8299C24.2597 46.7241 24.1169 46.4213 24.0037 46.121L23.9816 46.0693C23.9545 46.0127 23.9249 45.9511 23.9496 45.8871C23.9668 45.8453 24.0062 45.8133 24.0677 45.7887C24.1402 45.7664 24.216 45.7572 24.2917 45.7616H24.3188C24.4689 45.7616 24.5649 45.8527 24.6486 45.9339C24.6778 45.9615 24.7082 45.9877 24.7397 46.0127C25.0819 46.2736 25.0843 46.2736 25.4806 45.9881C25.4935 45.9772 25.5058 45.9657 25.5176 45.9536C25.5329 45.9353 25.5503 45.9188 25.5693 45.9044C25.7219 45.7961 25.8597 45.7518 25.9508 45.7887C25.9759 45.7983 25.9982 45.8142 26.0154 45.8349C26.0327 45.8556 26.0443 45.8804 26.0493 45.9068L26.0566 45.9438C26.0911 46.0964 26.1305 46.2711 26.0616 46.3918C25.9545 46.5663 25.7988 46.7057 25.6136 46.793C25.4462 46.8742 25.3896 46.9481 25.3822 47.0859C25.3805 47.1335 25.3814 47.1812 25.3846 47.2287C25.392 47.3542 25.3969 47.4847 25.3354 47.5782C25.2149 47.8001 25.1539 48.0494 25.1582 48.3019C25.1508 48.3954 25.1459 48.4914 25.1311 48.585C25.1071 48.7475 25.0742 48.9085 25.0326 49.0674C24.9834 49.2816 24.9317 49.5031 24.9194 49.7198C24.8993 50.1666 24.8928 50.614 24.8997 51.0613L24.9022 51.7358C24.8997 51.7998 24.9169 51.8539 24.9489 51.8859C24.9608 51.898 24.975 51.9075 24.9906 51.9139C25.0063 51.9202 25.0231 51.9233 25.04 51.9228H25.0425C25.1286 51.9228 25.2542 51.881 25.3009 51.8194L25.3797 51.7136C25.5176 51.5265 25.6603 51.337 25.7022 51.1376C25.8129 50.5862 26.0714 50.0988 26.3225 49.6287C26.7116 48.9091 27.0497 48.163 27.3342 47.3961C27.3736 47.2927 27.4056 47.1868 27.44 47.0834C27.5114 46.8545 27.5877 46.6207 27.7083 46.4139C27.8457 46.1862 27.9149 45.924 27.9077 45.6582L27.9102 44.5259C27.9151 43.8071 27.92 43.0637 27.8954 42.3327C27.8757 41.7197 28.016 41.1782 28.3385 40.6342C28.496 40.3684 28.6831 40.1542 28.848 39.9794C29.0006 39.817 29.1631 39.657 29.3206 39.5019C29.4683 39.3591 29.6234 39.2065 29.7686 39.0539C30.1403 38.6576 30.3053 38.2564 30.2708 37.8256C30.2462 37.5204 30.32 37.2299 30.3939 36.9468C30.4653 36.6711 30.5366 36.3831 30.512 36.0902C30.5046 36.009 30.5539 35.9327 30.6031 35.8588C30.6253 35.8244 30.6499 35.7899 30.6646 35.7554C30.8613 35.3618 31.1695 35.0347 31.5508 34.8151L31.6788 34.7314C32.1194 34.4459 32.5748 34.1505 32.9465 33.7542C33.2591 33.417 33.3822 33.1265 33.3748 32.7474C33.3576 32.0139 33.3625 31.2681 33.3649 30.5444L33.3699 29.6582C33.3699 29.5844 33.3649 29.513 33.3625 29.4391C33.3465 29.2718 33.3514 29.1031 33.3773 28.937C33.4585 28.5333 33.5643 28.1542 33.6948 27.8194C33.7859 27.5905 34.0074 27.497 34.2043 27.4182C34.9293 27.0683 35.6213 26.654 36.272 26.1801C36.3434 26.1259 36.4246 26.0816 36.5034 26.0397C36.6979 25.9339 36.8825 25.8354 36.8997 25.5967C36.9195 25.4425 36.967 25.2932 37.04 25.1561C37.1237 24.9764 37.2025 24.8041 37.1606 24.5997C37.1311 24.4521 37.1409 24.2994 37.1483 24.1517L37.1533 23.9942L37.1557 23.9228C37.1631 23.6742 37.168 23.4158 37.1926 23.1622C37.2 23.0785 37.3428 23.0096 37.4166 22.9998C37.488 22.9924 37.5766 23.0367 37.6431 23.0736C37.6673 23.0895 37.6874 23.111 37.7015 23.1362C37.7157 23.1615 37.7235 23.1899 37.7243 23.2188C37.7268 23.3936 37.7342 23.5733 37.7416 23.7481C37.7748 24.1671 37.7674 24.5883 37.7194 25.0059C37.6308 25.5942 37.456 26.249 36.8406 26.6428C36.6265 26.7782 36.4099 26.9062 36.1563 27.0564L35.8954 27.2139C36.2696 27.2434 36.6068 27.2459 36.9366 27.2484C37.1262 27.2484 37.3108 27.2508 37.4979 27.2582L37.6111 27.2607C38.5489 27.2607 39.3489 26.8299 40.0751 26.3647C40.8013 25.897 41.4191 25.2668 42.0148 24.6564C42.1797 24.489 42.3446 24.3191 42.512 24.1542C42.5809 24.0853 42.6154 24.0188 42.6129 23.9524C42.6129 23.881 42.5686 23.8022 42.4849 23.7259C42.2363 23.4945 42.1157 23.4502 41.8105 23.6225C41.3888 23.843 40.946 24.0204 40.4886 24.1517C40.0126 24.2875 39.5529 24.4749 39.1176 24.7105C38.9429 24.8105 38.7492 24.8726 38.5489 24.8927C38.4628 24.8976 38.3889 24.8287 38.3126 24.7573L38.2462 24.6982C38.1871 24.6465 38.16 24.5973 38.1674 24.5481C38.1748 24.4988 38.2117 24.4594 38.2782 24.4299C38.8566 24.1838 39.2357 23.7185 39.6394 23.1819C40.3705 22.1998 40.9736 21.4736 41.5889 20.8262C41.8302 20.5751 42.0394 20.3068 42.2339 20.0016C42.6228 19.3985 43.0609 18.7684 43.6468 18.2514C43.7674 18.1481 43.8733 18.0299 43.9717 17.9142C44.1022 17.7616 44.0923 17.5179 43.9471 17.3308ZM35.0609 25.3505C34.9873 25.4525 34.8892 25.5344 34.7756 25.5886C34.6621 25.6428 34.5367 25.6676 34.4111 25.6607C33.5799 25.6505 32.7487 25.6513 31.9176 25.6631C31.2209 25.6754 30.8763 26.0077 30.8665 26.6847C30.8649 26.7552 30.8657 26.8259 30.8689 26.8964C30.8714 27.0219 30.8763 27.1548 30.8616 27.2828C30.8394 27.497 30.8345 27.7136 30.9477 27.849C31.0289 27.9474 31.1693 28.0041 31.376 28.0213C31.6123 28.0385 31.8043 28.297 31.8117 28.6047V28.8139C31.8043 29.0551 31.7994 29.2841 31.9471 29.4958C32.0111 29.5893 31.9914 29.7837 31.9299 29.8773C31.7773 30.1037 31.7822 30.3499 31.7846 30.6108L31.7871 30.7684L31.7797 31.1154C31.7658 31.4732 31.7715 31.8315 31.7969 32.1887C31.8486 32.7277 31.5163 33.0133 31.2185 33.2004C30.8867 33.4125 30.5325 33.5874 30.1625 33.7222C29.7637 33.865 29.6013 34.0988 29.6554 34.4607C29.677 34.6949 29.6344 34.9306 29.5323 35.1425C29.4609 35.337 29.3945 35.5167 29.4093 35.7234L29.4166 35.8071C29.4462 36.2231 29.4806 36.6539 29.3649 37.0379C29.264 37.3801 29.2271 37.7099 29.1877 38.0594L29.1729 38.1776C29.1606 38.2834 29.0893 38.3819 29.0277 38.4681L29.0031 38.5025C28.9539 38.5779 28.8849 38.6384 28.8037 38.6773C28.4088 38.8392 28.076 39.1229 27.8536 39.4871C27.4499 40.1321 27.4006 40.8828 26.7262 41.3358C26.4504 41.5075 26.2293 41.7543 26.0886 42.0471C25.9286 42.3524 25.7785 42.6674 25.6259 42.9874C25.3723 43.5265 24.9662 43.7678 24.3557 43.7407C23.4794 43.7087 22.6031 43.7087 21.7514 43.7431C21.1926 43.7677 20.7791 43.5241 20.5576 43.049C20.5034 42.9333 20.4369 42.8151 20.3754 42.7044C20.2105 42.409 20.144 42.1456 20.0554 41.8354C19.9816 41.577 19.7674 41.4785 19.5631 41.3136C19.4794 41.2422 18.8665 40.9148 18.8542 40.8631C18.8257 40.7636 18.7895 40.6665 18.7459 40.5727C18.6397 40.3867 18.5908 40.1734 18.6056 39.9598C18.6326 39.7874 18.5046 39.657 18.3816 39.5339L18.3446 39.5019C18.0271 39.1794 17.6751 38.8373 17.2394 38.4287C17.1436 38.348 17.0677 38.2462 17.0178 38.1314C16.9678 38.0165 16.9451 37.8916 16.9514 37.7665C16.9539 37.641 16.9489 37.5105 16.944 37.385C16.9288 37.1939 16.9321 37.0019 16.9539 36.8114C16.9859 36.5776 16.9169 36.3684 16.8456 36.1468C16.7727 35.9589 16.732 35.76 16.7249 35.5585C16.7299 35.1794 16.7373 34.7881 16.5059 34.4188C16.5108 33.865 16.112 33.673 15.6689 33.5081L15.5533 33.4662C15.2234 33.3481 14.8837 33.225 14.6326 32.9444C14.5046 32.8041 14.3619 32.6441 14.3619 32.3979C14.3594 31.337 14.3545 30.2022 14.3446 28.7179C14.3422 28.4791 14.3865 28.2231 14.7336 28.1394C14.8296 28.1173 14.9206 28.0656 15.0191 28.009L15.1422 27.9401C15.2456 27.8884 15.2874 27.8219 15.2849 27.7136L15.2825 27.1548C15.2849 26.985 15.2874 26.8151 15.2849 26.6453C15.2776 26.025 14.9329 25.6754 14.3176 25.6656C13.8474 25.6558 13.3674 25.6557 12.9046 25.6557C12.5453 25.6557 12.1859 25.6557 11.824 25.6508C11.6631 25.6544 11.503 25.6286 11.3514 25.5745C11.2373 25.5172 11.1404 25.4305 11.0708 25.3234C11.0486 25.2914 11.0511 25.2496 11.0757 25.1979C11.1249 25.1019 11.2849 24.9222 11.4056 24.9197C11.7526 24.9124 12.1046 24.9173 12.4468 24.9148L12.7693 24.9173V24.8853L13.1385 24.8828L13.7711 24.8853C14.3249 24.8853 14.8222 25.0871 15.2382 25.2816C15.4229 25.3671 15.5805 25.5021 15.6934 25.6715C15.8063 25.8409 15.8703 26.0382 15.8782 26.2416C15.8925 26.4316 15.8958 26.6223 15.888 26.8127C15.8856 26.9382 15.8831 27.0662 15.8856 27.1942C15.888 27.2533 15.8856 27.3173 15.8831 27.3838C15.8782 27.561 15.8733 27.7481 15.952 27.8391C16.0825 27.9917 16.2819 27.9671 16.4886 27.9401C16.5969 27.9253 16.7102 27.9105 16.8185 27.9204C16.8406 27.9204 16.8751 27.9007 16.9046 27.881C16.9362 27.8599 16.97 27.8425 17.0056 27.8293C17.3871 27.7111 17.776 27.6004 18.1526 27.4921C18.7631 27.3197 19.3957 27.1425 19.9988 26.9259C20.5649 26.7241 20.9588 26.4631 21.0376 25.8477C21.0966 25.3776 21.5963 25.2447 21.9631 25.1511C22.2363 25.0773 22.6228 25.0084 22.9329 25.2151C23.0954 25.3234 23.2136 25.2865 23.3933 25.2299L23.4253 25.2201C24.2597 24.9641 24.7889 25.1979 25.1976 26.0028C25.5643 26.7265 25.5791 26.7536 26.3446 26.9899L27.3563 27.2853C27.9742 27.4601 28.6142 27.6422 29.232 27.8662C29.3969 27.9253 29.5889 27.9253 29.7883 27.9253C29.8671 27.9253 29.9508 27.9253 30.0296 27.9302C30.1009 27.9302 30.1649 27.9154 30.2019 27.881C30.2437 27.8416 30.2659 27.7825 30.2659 27.6988L30.2708 27.4034C30.2823 27.0679 30.2815 26.7321 30.2683 26.3967C30.2511 26.0668 30.4086 25.8527 30.5736 25.6262C30.8837 25.2053 31.3514 24.9788 32.0431 24.9124C32.7446 24.8459 33.4659 24.8656 34.1625 24.8828L34.896 24.9001C34.9822 24.9001 35.0683 25.0231 35.0929 25.0921C35.1176 25.1634 35.1126 25.2841 35.0609 25.3505Z" fill="#A9341D"/>
</svg>
